<?xml version="1.0" encoding="utf-8"?>
<!-- Generator: Adobe Illustrator 16.0.3, SVG Export Plug-In . SVG Version: 6.00 Build 0)  -->
<!DOCTYPE svg PUBLIC "-//W3C//DTD SVG 1.1//EN" "http://www.w3.org/Graphics/SVG/1.1/DTD/svg11.dtd">
<svg version="1.1" id="Layer_1" xmlns="http://www.w3.org/2000/svg" xmlns:xlink="http://www.w3.org/1999/xlink" x="0px" y="0px"
	 width="171.255px" height="140.117px" viewBox="0 0 171.255 140.117" enable-background="new 0 0 171.255 140.117"
	 xml:space="preserve">
<g>
	<defs>
		<rect id="SVGID_4_" x="358.511" y="60.801" width="550.55" height="550.55"/>
	</defs>
	<clipPath id="SVGID_1_">
		<use xlink:href="#SVGID_4_"  overflow="visible"/>
	</clipPath>
	<g clip-path="url(#SVGID_1_)">
		
			<image overflow="visible" width="1920" height="1050" xlink:href="6945E345.jpg"  transform="matrix(1.5274 0 0 1.5274 -557.2554 -631.9155)">
		</image>
	</g>
	<use xlink:href="#SVGID_4_"  overflow="visible" fill="none" stroke="#515151" stroke-miterlimit="10"/>
</g>
<g>
	<path fill-rule="evenodd" clip-rule="evenodd" fill="#FAA819" d="M140.632,34.077c1.732-1.709,4.71-1.505,6.683,0.468
		c1.947,1.967,2.136,4.946,0.4,6.659c-1.726,1.7-4.713,1.479-6.673-0.48C139.092,38.756,138.905,35.779,140.632,34.077
		L140.632,34.077z"/>
	<path fill="#FAA819" d="M142.929,39.357c-0.036-0.036-28.52-30.517-37.748-17.939l-3.896-2.664
		c12.323-16.81,44.869,18.038,44.915,18.084L142.929,39.357z"/>
	<path fill-rule="evenodd" clip-rule="evenodd" fill="#FAA819" d="M145.694,41.192c0,0-2.056,3.402,1.893,7.126
		c3.95,3.744,13.135,13.563,14.268,15.476c0,0,0.762-3.077,4.992-4.686c4.233-1.595,4.408-6.51,4.408-6.51
		s-8.211-5.459-14.445-11.262C150.577,35.529,146.774,39.097,145.694,41.192L145.694,41.192z"/>
	<g>
		<polygon fill-rule="evenodd" clip-rule="evenodd" fill="#FAA819" points="35.807,35.794 78.671,17.902 121.526,0 103.635,42.866 
			85.731,85.718 42.868,103.633 0,121.525 17.904,78.669 		"/>
		<path fill-rule="evenodd" clip-rule="evenodd" fill="#0089CF" d="M58.953,106.354l-16.404,6.85l26.914,26.914
			c10.461-7.944,25.823-14.34,39.3-17.885C98.928,114.53,80.514,103.397,58.953,106.354z M106.447,58.776
			c-2.973,21.691,8.265,40.239,15.955,50.07c3.625-13.506,9.79-28.937,17.754-39.425l-26.914-26.913L106.447,58.776z"/>
		<path fill-rule="evenodd" clip-rule="evenodd" fill="#FFFFFF" d="M59.906,59.918c4.248-4.247,11.19-4.177,15.516,0.148
			c4.326,4.326,4.407,11.279,0.159,15.526c-4.234,4.234-11.186,4.152-15.512-0.174C55.744,71.094,55.672,64.152,59.906,59.918
			L59.906,59.918z"/>
		<path fill="#FFFFFF" d="M117.742,15.704c-3.331-1.298-6.5-1.764-9.773-1.486c-10.102,0.851-20.177,8.208-26.519,11.365
			c6.846-5.357,22.983-18.452,37.848-13.348L117.742,15.704z"/>
		<path fill-rule="evenodd" clip-rule="evenodd" fill="#0089CF" d="M62.352,117.916l0.123-10.823c0,0-12.983-4.103-32.54,7.688
			C29.935,114.781,42.517,112.601,62.352,117.916L62.352,117.916z"/>
		<path fill-rule="evenodd" clip-rule="evenodd" fill="#0089CF" d="M118.451,61.816l-10.821,0.121c0,0-3.268-12.875,7.431-32.586
			C115.061,29.352,113.135,41.983,118.451,61.816L118.451,61.816z"/>
		<path fill-rule="evenodd" clip-rule="evenodd" fill="none" stroke="#024D67" stroke-width="2" stroke-miterlimit="10" d="
			M108.544,121.903c0,0-17.347-14.688-41.048-16.26c0,0-19.183-1.615-36.555,7.82c0,0-1.651,0.935-2.561-1.338
			c-0.241-0.603-0.405-1.66,1.703-2.508l56.304-23.311l23.997-57.376c0,0,0.898-2.648,2.799-1.255
			c0.517,0.378,1.498,1.16,0.458,3.086c0,0-7.781,13.578-7.841,38.52c0,0,0.559,18.718,16.297,39.314"/>
	</g>
</g>
</svg>
