<?xml version="1.0" encoding="utf-8"?>
<!-- Generator: Adobe Illustrator 16.0.3, SVG Export Plug-In . SVG Version: 6.00 Build 0)  -->
<!DOCTYPE svg PUBLIC "-//W3C//DTD SVG 1.1//EN" "http://www.w3.org/Graphics/SVG/1.1/DTD/svg11.dtd">
<svg version="1.1" id="Layer_1" xmlns="http://www.w3.org/2000/svg" xmlns:xlink="http://www.w3.org/1999/xlink" x="0px" y="0px"
	 width="53.822px" height="29.146px" viewBox="0 0 53.822 29.146" enable-background="new 0 0 53.822 29.146" xml:space="preserve">
<g>
	<g>
		<path fill="#FFFFFF" d="M52.899,13.404c-0.108-0.139-2.718-3.408-7.188-6.694C39.737,2.321,33.236,0,26.912,0
			S14.088,2.321,8.113,6.71c-4.471,3.284-7.08,6.556-7.188,6.694L0,14.573l0.925,1.169c0.108,0.139,2.718,3.41,7.187,6.693
			c5.976,4.39,12.477,6.711,18.8,6.711c6.325,0,12.825-2.321,18.8-6.711c4.471-3.283,7.08-6.555,7.188-6.693l0.924-1.169
			L52.899,13.404z M26.912,24.781c-5.629,0-10.209-4.579-10.209-10.209c0-0.882,0.111-1.737,0.324-2.554l-2.33-0.393
			c-0.229,0.944-0.35,1.932-0.35,2.946c0,3.636,1.553,6.917,4.03,9.213c-3.188-1.178-5.899-2.83-7.946-4.326
			c-2.535-1.851-4.436-3.724-5.518-4.887c1.082-1.162,2.981-3.035,5.518-4.886c2.047-1.496,4.758-3.147,7.946-4.326l1.563,1.762
			c1.826-1.71,4.279-2.759,6.972-2.759c5.63,0,10.208,4.58,10.208,10.209C37.121,20.202,32.541,24.781,26.912,24.781z M43.394,19.46
			c-2.048,1.495-4.757,3.147-7.945,4.325c2.478-2.296,4.029-5.576,4.029-9.212c0-3.637-1.552-6.916-4.029-9.213
			c3.188,1.178,5.897,2.831,7.945,4.326c2.536,1.851,4.436,3.724,5.518,4.887C47.828,15.736,45.93,17.608,43.394,19.46z"/>
		<path fill="#FFFFFF" d="M20.416,12.588c-0.191,0.629-0.295,1.295-0.295,1.986c0,3.75,3.041,6.791,6.791,6.791
			s6.791-3.041,6.791-6.791c0-3.752-3.041-6.793-6.791-6.793c-1.827,0-3.484,0.724-4.705,1.896l3.351,3.776L20.416,12.588z"/>
	</g>
</g>
</svg>
