<?xml version="1.0" encoding="utf-8"?>
<!-- Generator: Adobe Illustrator 16.0.3, SVG Export Plug-In . SVG Version: 6.00 Build 0)  -->
<!DOCTYPE svg PUBLIC "-//W3C//DTD SVG 1.1//EN" "http://www.w3.org/Graphics/SVG/1.1/DTD/svg11.dtd">
<svg version="1.1" id="Layer_1" xmlns="http://www.w3.org/2000/svg" xmlns:xlink="http://www.w3.org/1999/xlink" x="0px" y="0px"
	 width="135.302px" height="135.302px" viewBox="0 0 135.302 135.302" enable-background="new 0 0 135.302 135.302"
	 xml:space="preserve">
<g>
	<g>
		<path fill="#FFFFFF" d="M67.65,0c37.365,0,67.652,30.29,67.652,67.65c0,37.364-30.287,67.651-67.652,67.651
			C30.286,135.302,0,105.015,0,67.65C0,30.29,30.286,0,67.65,0z"/>
		<g>
			<path fill="#3C65D2" d="M75.892,46.704h8.72V33.825H74.36v0.048c-12.417,0.44-14.962,7.419-15.188,14.753h-0.025v6.43h-8.456
				v12.612h8.456v33.808h12.746V67.668h10.439l2.016-12.612H71.897v-3.884C71.897,48.694,73.546,46.704,75.892,46.704z"/>
		</g>
	</g>
</g>
</svg>
