<?xml version="1.0" encoding="utf-8"?>
<!-- Generator: Adobe Illustrator 16.0.3, SVG Export Plug-In . SVG Version: 6.00 Build 0)  -->
<!DOCTYPE svg PUBLIC "-//W3C//DTD SVG 1.1//EN" "http://www.w3.org/Graphics/SVG/1.1/DTD/svg11.dtd">
<svg version="1.1" id="Layer_1" xmlns="http://www.w3.org/2000/svg" xmlns:xlink="http://www.w3.org/1999/xlink" x="0px" y="0px"
	 width="135.302px" height="135.302px" viewBox="0 0 135.302 135.302" enable-background="new 0 0 135.302 135.302"
	 xml:space="preserve">
<g>
	<g>
		<g>
			<path fill="#FFFFFF" d="M67.65,0c37.364,0,67.651,30.29,67.651,67.65c0,37.364-30.287,67.651-67.651,67.651S0,105.015,0,67.65
				C0,30.29,30.286,0,67.65,0z"/>
		</g>
	</g>
	<g>
		<path fill="#FBBB00" d="M50.65,76.02l-2.125,7.936l-7.77,0.165c-2.322-4.307-3.639-9.233-3.639-14.47
			c0-5.063,1.231-9.838,3.414-14.042h0.001l6.917,1.269l3.03,6.875c-0.635,1.849-0.98,3.833-0.98,5.898
			C49.5,71.892,49.905,74.039,50.65,76.02z"/>
		<path fill="#518EF8" d="M97.649,63.946c0.352,1.847,0.534,3.755,0.534,5.704c0,2.186-0.23,4.318-0.668,6.375
			c-1.486,6.999-5.37,13.111-10.75,17.436l-0.002-0.002l-8.712-0.443l-1.233-7.697c3.57-2.094,6.36-5.371,7.83-9.293H68.321V63.946
			h16.565H97.649L97.649,63.946z"/>
		<path fill="#28B446" d="M86.764,93.459l0.002,0.002c-5.233,4.206-11.88,6.723-19.115,6.723c-11.628,0-21.737-6.499-26.895-16.063
			l9.895-8.1c2.578,6.882,9.217,11.78,17,11.78c3.345,0,6.479-0.904,9.168-2.482L86.764,93.459z"/>
		<path fill="#F14336" d="M87.14,46.146l-9.892,8.098c-2.783-1.739-6.073-2.744-9.598-2.744c-7.959,0-14.722,5.123-17.171,12.252
			l-9.947-8.144h-0.001c5.082-9.798,15.318-16.491,27.119-16.491C75.059,39.117,81.852,41.756,87.14,46.146z"/>
	</g>
</g>
</svg>
