<?xml version="1.0" encoding="utf-8"?>
<!-- Generator: Adobe Illustrator 16.0.3, SVG Export Plug-In . SVG Version: 6.00 Build 0)  -->
<!DOCTYPE svg PUBLIC "-//W3C//DTD SVG 1.1//EN" "http://www.w3.org/Graphics/SVG/1.1/DTD/svg11.dtd">
<svg version="1.1" id="Layer_1" xmlns="http://www.w3.org/2000/svg" xmlns:xlink="http://www.w3.org/1999/xlink" x="0px" y="0px"
	 width="272.681px" height="179.11px" viewBox="0 0 272.681 179.11" enable-background="new 0 0 272.681 179.11"
	 xml:space="preserve">
<g>
	<path fill-rule="evenodd" clip-rule="evenodd" fill="#FAA819" d="M255.885,115.679c3.86,0.025,6.97,3.598,6.97,8.021
		c-0.021,4.393-3.152,7.947-7.021,7.922c-3.843-0.029-6.946-3.63-6.946-8.026C248.907,119.2,252.038,115.649,255.885,115.679
		L255.885,115.679z"/>
	<path fill="#FAA819" d="M252.537,124.178c0-0.079,2.239-66.233-22.223-62.474l-1.381-7.36c32.681-5.032,30.1,70.575,30.1,70.681
		L252.537,124.178z"/>
	<path fill-rule="evenodd" clip-rule="evenodd" fill="#FAA819" d="M253.581,129.341c0,0-6.123,1.511-5.87,10.119
		c0.229,8.633-0.483,29.951-1.358,33.367c0,0,4.308-2.596,10.862,0.344c6.536,2.961,12.245-2.357,12.245-2.357
		s-3.088-15.335-3.57-28.842C265.408,128.466,257.146,128.202,253.581,129.341L253.581,129.341z"/>
	<g>
		<polygon fill-rule="evenodd" clip-rule="evenodd" fill="#FAA819" points="136.354,0 204.517,28.018 272.681,56.01 204.517,84.031 
			136.354,112.021 68.166,84.031 0,56.01 68.166,28.018 		"/>
		<path fill-rule="evenodd" clip-rule="evenodd" fill="#0089CF" d="M83.16,105.13L57.071,94.411v60.388
			c20.649,2.823,45.058,12.884,64.154,24.026C118.837,159.151,110.666,126.004,83.16,105.13z M189.82,105.036
			c-27.67,21-35.871,54.415-38.271,74.074c19.216-11.084,43.447-21.48,64.149-24.312V94.411L189.82,105.036z"/>
		<path fill-rule="evenodd" clip-rule="evenodd" fill="#FFFFFF" d="M136.327,54.102c9.529,0,17.238,7.87,17.238,17.573
			c0,9.707-7.709,17.599-17.238,17.599c-9.501,0-17.209-7.892-17.209-17.599C119.118,61.972,126.826,54.102,136.327,54.102
			L136.327,54.102z"/>
		<path fill="#FFFFFF" d="M250.817,69.386c-2.282-5.194-5.315-9.272-9.298-12.635c-12.29-10.379-31.848-13.427-42.506-17.002
			c13.694,1.67,46.488,5.086,57.438,27.49L250.817,69.386z"/>
		<path fill-rule="evenodd" clip-rule="evenodd" fill="#0089CF" d="M74.001,121.915l12.281-12.006c0,0-9.962-19.168-45.133-27.881
			C41.149,82.028,57.711,93.698,74.001,121.915L74.001,121.915z"/>
		<path fill-rule="evenodd" clip-rule="evenodd" fill="#0089CF" d="M199.88,121.915l-12.279-12.006c0,0,10.777-18.109,44.897-28.221
			C232.498,81.688,216.164,93.698,199.88,121.915L199.88,121.915z"/>
		<path fill-rule="evenodd" clip-rule="evenodd" fill="none" stroke="#024D67" stroke-width="3" stroke-miterlimit="10" d="
			M121.353,178.21c0,0-2.982-35.938-27.812-64.292c0,0-19.71-23.336-49.784-32.24c0,0-2.901-0.803-1.374-4.37
			c0.406-0.947,1.409-2.318,4.727-0.904l89.318,37.016l91.294-37.449c0,0,3.98-1.963,4.55,1.735
			c0.154,1.001,0.378,2.982-2.949,3.973c0,0-23.964,6.504-52.011,34.421c0,0-20.375,21.625-25.824,62.391"/>
	</g>
</g>
</svg>
