<?xml version="1.0" encoding="utf-8"?>
<!-- Generator: Adobe Illustrator 16.0.3, SVG Export Plug-In . SVG Version: 6.00 Build 0)  -->
<!DOCTYPE svg PUBLIC "-//W3C//DTD SVG 1.1//EN" "http://www.w3.org/Graphics/SVG/1.1/DTD/svg11.dtd">
<svg version="1.1" id="Layer_1" xmlns="http://www.w3.org/2000/svg" xmlns:xlink="http://www.w3.org/1999/xlink" x="0px" y="0px"
	 width="953.28px" height="377.52px" viewBox="0 0 953.28 377.52" enable-background="new 0 0 953.28 377.52" xml:space="preserve">
<g>
	
		<image overflow="visible" opacity="0.25" width="5239" height="4127" xlink:href="52099C10.png"  transform="matrix(0.24 0 0 0.24 952.1035 -129.8379)">
	</image>
</g>
<g>
	
		<image overflow="visible" opacity="0.15" width="3972" height="1573" xlink:href="52099C11.png"  transform="matrix(0.24 0 0 0.24 0 0)">
	</image>
	<g>
		
			<rect x="94.667" y="86.847" transform="matrix(-0.9657 -0.2596 0.2596 -0.9657 266.5807 377.1877)" fill-rule="evenodd" clip-rule="evenodd" fill="#FAFAFA" width="127.06" height="168.288"/>
		<polygon fill-rule="evenodd" clip-rule="evenodd" fill="#666666" points="132.521,114.736 133.146,114.896 127.737,135.047 
			127.111,134.889 		"/>
		<polygon fill-rule="evenodd" clip-rule="evenodd" fill="#666666" points="127.111,134.889 127.271,134.264 158.038,142.537 
			157.878,143.15 		"/>
		<polygon fill-rule="evenodd" clip-rule="evenodd" fill="#E37838" points="128.259,134.535 133.113,130.127 134.169,133.547 
			141.512,126.375 142.898,128.865 145.217,124.92 146.831,126.5 149.832,123.193 152.332,124.488 158.469,122.352 158.083,120.875 
			160.958,122.375 159.038,124.807 158.583,123.398 152.082,125.398 150.127,124.217 146.649,127.83 145.467,126.354 
			142.614,130.285 141.216,127.875 133.817,134.854 132.715,131.592 129.282,134.809 		"/>
		<polygon fill-rule="evenodd" clip-rule="evenodd" fill="#666666" points="173.71,125.807 174.324,125.967 168.903,146.129 
			168.289,145.959 		"/>
		<polygon fill-rule="evenodd" clip-rule="evenodd" fill="#666666" points="168.289,145.959 168.459,145.334 199.227,153.607 
			199.056,154.221 		"/>
		<polygon fill-rule="evenodd" clip-rule="evenodd" fill="#00C7D9" points="169.437,145.605 174.29,141.195 175.358,144.617 
			182.701,137.445 184.087,139.936 186.406,135.99 188.02,137.57 191.021,134.264 193.521,135.559 199.647,133.422 199.249,131.945 
			202.136,133.445 200.227,135.877 199.772,134.469 193.271,136.469 191.316,135.285 187.827,138.9 186.656,137.424 
			183.792,141.355 182.405,138.945 174.995,145.924 173.904,142.662 170.46,145.879 		"/>
		<polygon fill-rule="evenodd" clip-rule="evenodd" fill="#CCCCCC" points="193.532,163.529 118.235,143.287 117.758,145.061 
			193.043,165.303 		"/>
		<polygon fill-rule="evenodd" clip-rule="evenodd" fill="#CCCCCC" points="205.909,169.871 117.485,146.096 117.007,147.879 
			205.443,171.633 		"/>
		
			<rect x="114.903" y="160.828" transform="matrix(0.9657 0.2597 -0.2597 0.9657 47.5135 -36.1775)" fill-rule="evenodd" clip-rule="evenodd" fill="#CCCCCC" width="91.566" height="1.836"/>
		<path fill-rule="evenodd" clip-rule="evenodd" fill="#FFFFFF" d="M131.942,160.938c-5.774-1.557-11.729,1.842-13.264,7.582
			c-1.546,5.75,1.898,11.66,7.672,13.229c5.796,1.547,11.729-1.84,13.275-7.592C141.171,168.416,137.738,162.496,131.942,160.938"/>
		<path fill-rule="evenodd" clip-rule="evenodd" fill="#F7E35E" d="M131.76,161.631c-5.41-1.453-10.945,1.717-12.389,7.082
			c-1.443,5.354,1.773,10.889,7.172,12.342c5.398,1.443,10.945-1.715,12.377-7.08C140.375,168.609,137.17,163.074,131.76,161.631"/>
		<path fill-rule="evenodd" clip-rule="evenodd" fill="#6699FF" d="M125.555,161.916c-2.933,1.102-5.308,3.545-6.183,6.797
			c-0.523,1.92-0.432,3.852,0.125,5.625l9.626-2.908L125.555,161.916z"/>
		<path fill-rule="evenodd" clip-rule="evenodd" fill="#E07040" d="M131.76,161.631c-2.137-0.578-4.285-0.432-6.206,0.285
			l3.568,9.514l3.012-9.695C132.01,161.699,131.885,161.654,131.76,161.631"/>
		<path fill-rule="evenodd" clip-rule="evenodd" fill="#FFFFFF" d="M178.166,173.475c6.399,0,11.604,5.16,11.604,11.525
			c-0.011,6.363-5.205,11.523-11.615,11.523c-6.411,0-11.604-5.182-11.604-11.547C166.562,178.611,171.756,173.463,178.166,173.475"
			/>
		<path fill-rule="evenodd" clip-rule="evenodd" fill="#FF876B" d="M178.155,174.225c6.001,0,10.843,4.842,10.843,10.775
			c0,5.955-4.865,10.762-10.843,10.762c-5.99-0.01-10.843-4.83-10.832-10.773C167.323,179.043,172.176,174.225,178.155,174.225"/>
		<path fill-rule="evenodd" clip-rule="evenodd" fill="#00C7D9" d="M184.497,176.271c2.728,1.943,4.501,5.137,4.501,8.729
			c0,2.137-0.625,4.113-1.694,5.773l-9.149-5.684L184.497,176.271z"/>
		<path fill-rule="evenodd" clip-rule="evenodd" fill="#F7E35E" d="M178.155,174.225c2.375,0,4.569,0.75,6.342,2.047l-6.342,8.818
			l-0.409-10.842C177.882,174.225,178.029,174.225,178.155,174.225"/>
		<polygon fill-rule="evenodd" clip-rule="evenodd" fill="#CCCCCC" points="183.076,202.389 107.79,182.135 107.324,183.908 
			182.61,204.162 		"/>
		<polygon fill-rule="evenodd" clip-rule="evenodd" fill="#CCCCCC" points="195.476,208.73 107.028,184.953 106.563,186.727 
			194.999,210.504 		"/>
		<polygon fill-rule="evenodd" clip-rule="evenodd" fill="#CCCCCC" points="194.703,211.596 106.255,187.83 105.79,189.602 
			194.226,213.367 		"/>
		<polygon fill-rule="evenodd" clip-rule="evenodd" fill="#666666" points="103.676,197.457 104.346,197.627 98.516,219.289 
			97.845,219.107 		"/>
		<polygon fill-rule="evenodd" clip-rule="evenodd" fill="#666666" points="97.845,219.107 98.038,218.449 131.101,227.324 
			130.919,227.996 		"/>
		<polygon fill-rule="evenodd" clip-rule="evenodd" fill="#F7E35E" points="104.176,204.117 106.301,204.695 102.414,219.143 
			100.277,218.574 		"/>
		<polygon fill-rule="evenodd" clip-rule="evenodd" fill="#E07040" points="109.733,201.139 111.87,201.73 106.858,220.336 
			104.721,219.768 		"/>
		<polygon fill-rule="evenodd" clip-rule="evenodd" fill="#6699FF" points="112.575,207.469 114.711,208.049 111.097,221.471 
			108.96,220.904 		"/>
		<polygon fill-rule="evenodd" clip-rule="evenodd" fill="#F7E35E" points="118.121,205.436 120.235,206.014 115.757,222.732 
			113.621,222.154 		"/>
		<polygon fill-rule="evenodd" clip-rule="evenodd" fill="#E37838" points="121.758,208.844 123.895,209.424 120.008,223.869 
			117.883,223.301 		"/>
		<polygon fill-rule="evenodd" clip-rule="evenodd" fill="#6699FF" points="124.475,215.379 126.6,215.959 124.168,224.984 
			122.054,224.416 		"/>
		
			<rect x="141.066" y="214.467" transform="matrix(0.9657 0.2597 -0.2597 0.9657 61.526 -34.944)" fill-rule="evenodd" clip-rule="evenodd" fill="#CCCCCC" width="43.9" height="1.836"/>
		<polygon fill-rule="evenodd" clip-rule="evenodd" fill="#CCCCCC" points="191.089,224.994 141.296,211.605 140.818,213.379 
			190.623,226.768 		"/>
		
			<rect x="139.389" y="221.145" transform="matrix(0.9657 0.2596 -0.2596 0.9657 63.3127 -35.2673)" fill-rule="evenodd" clip-rule="evenodd" fill="#CCCCCC" width="51.572" height="1.835"/>
		<polygon fill-rule="evenodd" clip-rule="evenodd" fill="#CCCCCC" points="181.223,232.234 138.807,220.846 138.33,222.619 
			180.734,234.008 		"/>
		
			<rect x="136.934" y="230.305" transform="matrix(0.9657 0.2596 -0.2596 0.9657 65.6068 -34.3158)" fill-rule="evenodd" clip-rule="evenodd" fill="#CCCCCC" width="51.572" height="1.837"/>
		<polygon fill-rule="evenodd" clip-rule="evenodd" fill="#CCCCCC" points="187.088,239.918 137.284,226.529 136.807,228.291 
			186.61,241.691 		"/>
		<polygon fill-rule="evenodd" clip-rule="evenodd" fill="#CCCCCC" points="190.998,115.477 157.662,106.508 157.185,108.293 
			190.521,117.238 		"/>
		<polygon fill-rule="evenodd" clip-rule="evenodd" fill="#CCCCCC" points="193.146,119.066 154.002,108.543 153.525,110.305 
			192.68,120.828 		"/>
		
			<rect x="178.149" y="86.029" transform="matrix(-0.9354 -0.3535 0.3535 -0.9354 407.0032 413.5844)" fill-rule="evenodd" clip-rule="evenodd" fill="#FAFAFA" width="126.238" height="167.196"/>
		<polygon fill="#CCCCCC" points="214.115,115.623 220.025,99.961 222.117,100.746 219.673,107.201 227.766,110.26 230.209,103.803 
			232.289,104.6 226.368,120.262 224.288,119.477 227.072,112.1 218.98,109.043 216.184,116.42 		"/>
		<polygon fill-rule="evenodd" clip-rule="evenodd" fill="#CCCCCC" points="293.47,138.332 232.414,115.271 231.766,116.988 
			292.811,140.049 		"/>
		<polygon fill-rule="evenodd" clip-rule="evenodd" fill="#CCCCCC" points="303.097,145.072 231.391,117.977 230.755,119.682 
			302.449,146.777 		"/>
		<polygon fill-rule="evenodd" clip-rule="evenodd" fill="#CCCCCC" points="302.063,147.846 230.346,120.75 229.709,122.443 
			301.403,149.551 		"/>
		<polygon fill-rule="evenodd" clip-rule="evenodd" fill="#CCCCCC" points="296.971,129.035 235.926,105.963 235.278,107.668 
			296.334,130.74 		"/>
		<polygon fill-rule="evenodd" clip-rule="evenodd" fill="#CCCCCC" points="306.62,135.764 234.915,108.668 234.267,110.373 
			305.972,137.469 		"/>
		<polygon fill-rule="evenodd" clip-rule="evenodd" fill="#CCCCCC" points="305.575,138.537 233.857,111.441 233.221,113.146 
			304.927,140.242 		"/>
		<polygon fill-rule="evenodd" clip-rule="evenodd" fill="#CCCCCC" points="281.525,160.836 203.216,131.24 202.568,132.945 
			280.877,162.541 		"/>
		<polygon fill-rule="evenodd" clip-rule="evenodd" fill="#CCCCCC" points="294.175,168.701 202.193,133.945 201.545,135.639 
			293.527,170.406 		"/>
		<polygon fill-rule="evenodd" clip-rule="evenodd" fill="#CCCCCC" points="293.129,171.475 201.147,136.707 200.5,138.412 
			292.493,173.168 		"/>
		<polygon fill-rule="evenodd" clip-rule="evenodd" fill="#CCCCCC" points="285.037,151.516 206.728,121.932 206.091,123.637 
			284.4,153.221 		"/>
		<polygon fill-rule="evenodd" clip-rule="evenodd" fill="#CCCCCC" points="297.687,159.393 205.705,124.625 205.068,126.33 
			297.05,161.086 		"/>
		<polygon fill-rule="evenodd" clip-rule="evenodd" fill="#CCCCCC" points="296.641,162.154 204.659,127.398 204.023,129.104 
			295.993,163.859 		"/>
		<polygon fill-rule="evenodd" clip-rule="evenodd" fill="#CCCCCC" points="273.364,182.432 195.055,152.834 194.407,154.539 
			272.717,184.135 		"/>
		<polygon fill-rule="evenodd" clip-rule="evenodd" fill="#CCCCCC" points="286.014,190.295 194.032,155.539 193.384,157.244 
			285.378,192 		"/>
		<polygon fill-rule="evenodd" clip-rule="evenodd" fill="#CCCCCC" points="284.969,193.068 192.987,158.301 192.339,160.006 
			284.321,194.773 		"/>
		<polygon fill-rule="evenodd" clip-rule="evenodd" fill="#CCCCCC" points="276.876,173.123 198.567,143.525 197.908,145.242 
			276.24,174.826 		"/>
		<polygon fill-rule="evenodd" clip-rule="evenodd" fill="#CCCCCC" points="289.538,180.986 197.544,146.23 196.908,147.924 
			288.878,182.682 		"/>
		<polygon fill-rule="evenodd" clip-rule="evenodd" fill="#CCCCCC" points="288.48,183.75 196.499,148.992 195.862,150.697 
			287.833,185.453 		"/>
		<polygon fill-rule="evenodd" clip-rule="evenodd" fill="#CCCCCC" points="265.647,202.865 187.327,173.27 186.679,174.975 
			264.988,204.57 		"/>
		<polygon fill-rule="evenodd" clip-rule="evenodd" fill="#CCCCCC" points="278.286,210.73 186.304,175.975 185.656,177.68 
			277.649,212.436 		"/>
		<polygon fill-rule="evenodd" clip-rule="evenodd" fill="#CCCCCC" points="277.24,213.504 185.258,178.748 184.61,180.453 
			276.604,215.209 		"/>
		<polygon fill-rule="evenodd" clip-rule="evenodd" fill="#CCCCCC" points="269.159,193.559 190.838,163.973 190.202,165.678 
			268.511,195.273 		"/>
		<polygon fill-rule="evenodd" clip-rule="evenodd" fill="#CCCCCC" points="281.809,201.434 189.816,166.666 189.179,168.371 
			281.15,203.127 		"/>
		<polygon fill-rule="evenodd" clip-rule="evenodd" fill="#CCCCCC" points="280.764,204.184 188.781,169.439 188.134,171.145 
			280.116,205.9 		"/>
		<polygon fill-rule="evenodd" clip-rule="evenodd" fill="#CCCCCC" points="195.703,201.389 179.086,195.104 178.427,196.82 
			195.066,203.094 		"/>
		<polygon fill-rule="evenodd" clip-rule="evenodd" fill="#CCCCCC" points="189.065,209.594 175.541,204.48 174.893,206.186 
			188.429,211.299 		"/>
		<polygon fill-rule="evenodd" clip-rule="evenodd" fill="#CCCCCC" points="196.84,198.389 180.2,192.113 179.564,193.818 
			196.203,200.104 		"/>
		<polygon fill-rule="evenodd" clip-rule="evenodd" fill="#FFFFFF" points="317.656,58 433.608,107.895 367.517,261.467 
			251.565,211.572 		"/>
		<polygon fill-rule="evenodd" clip-rule="evenodd" fill="#CCCCCC" points="391.896,132.672 315.247,99.689 314.531,101.359 
			391.169,134.332 		"/>
		<polygon fill-rule="evenodd" clip-rule="evenodd" fill="#CCCCCC" points="404.138,141.082 314.11,102.326 313.383,104.008 
			403.421,142.754 		"/>
		<polygon fill-rule="evenodd" clip-rule="evenodd" fill="#CCCCCC" points="402.967,143.787 312.928,105.053 312.212,106.725 
			402.239,145.469 		"/>
		<polygon fill-rule="evenodd" clip-rule="evenodd" fill="#CCCCCC" points="384.873,157.051 324.908,131.262 324.18,132.922 
			384.145,158.723 		"/>
		<polygon fill-rule="evenodd" clip-rule="evenodd" fill="#CCCCCC" points="394.181,164.201 323.771,133.9 323.043,135.582 
			393.465,165.883 		"/>
		<polygon fill-rule="evenodd" clip-rule="evenodd" fill="#CCCCCC" points="393.011,166.928 322.6,136.627 321.884,138.309 
			392.294,168.6 		"/>
		<polygon fill-rule="evenodd" clip-rule="evenodd" fill="#CCCCCC" points="388.794,147.924 328.84,122.113 328.113,123.783 
			388.078,149.584 		"/>
		<polygon fill-rule="evenodd" clip-rule="evenodd" fill="#CCCCCC" points="398.113,155.063 327.704,124.762 326.976,126.443 
			397.397,156.744 		"/>
		<polygon fill-rule="evenodd" clip-rule="evenodd" fill="#CCCCCC" points="396.942,157.791 326.533,127.49 325.805,129.16 
			396.228,159.473 		"/>
		<polygon fill-rule="evenodd" clip-rule="evenodd" fill="#CCCCCC" points="375.734,178.271 315.781,152.459 315.065,154.131 
			375.007,179.93 		"/>
		
			<rect x="311.165" y="170.196" transform="matrix(0.9186 0.3953 -0.3953 0.9186 96.1026 -124.2175)" fill-rule="evenodd" clip-rule="evenodd" fill="#CCCCCC" width="76.653" height="1.817"/>
		<polygon fill-rule="evenodd" clip-rule="evenodd" fill="#CCCCCC" points="383.895,188.137 313.474,157.836 312.746,159.506 
			383.167,189.807 		"/>
		<polygon fill-rule="evenodd" clip-rule="evenodd" fill="#CCCCCC" points="379.667,169.121 319.713,143.332 318.998,145.004 
			378.94,170.793 		"/>
		<polygon fill-rule="evenodd" clip-rule="evenodd" fill="#CCCCCC" points="388.987,176.281 318.577,145.971 317.861,147.652 
			388.26,177.953 		"/>
		<polygon fill-rule="evenodd" clip-rule="evenodd" fill="#CCCCCC" points="387.828,178.998 317.406,148.697 316.679,150.379 
			387.1,180.68 		"/>
		<polygon fill-rule="evenodd" clip-rule="evenodd" fill="#CCCCCC" points="365.778,205.094 313.599,182.658 312.883,184.318 
			365.074,206.775 		"/>
		<polygon fill-rule="evenodd" clip-rule="evenodd" fill="#CCCCCC" points="373.757,211.686 312.451,185.295 311.746,186.977 
			373.03,213.357 		"/>
		<polygon fill-rule="evenodd" clip-rule="evenodd" fill="#CCCCCC" points="372.586,214.391 311.292,188.023 310.564,189.705 
			371.87,216.072 		"/>
		<polygon fill-rule="evenodd" clip-rule="evenodd" fill="#CCCCCC" points="369.711,195.967 317.542,173.508 316.815,175.18 
			368.995,197.648 		"/>
		<polygon fill-rule="evenodd" clip-rule="evenodd" fill="#CCCCCC" points="377.689,202.537 316.395,176.156 315.679,177.84 
			376.962,204.219 		"/>
		<polygon fill-rule="evenodd" clip-rule="evenodd" fill="#CCCCCC" points="376.519,205.264 315.224,178.885 314.497,180.566 
			375.803,206.936 		"/>
		<polygon fill-rule="evenodd" clip-rule="evenodd" fill="#CCCCCC" points="367.188,226.939 276.854,188.08 276.149,189.75 
			366.46,228.621 		"/>
		<polygon fill-rule="evenodd" clip-rule="evenodd" fill="#CCCCCC" points="368.46,224.006 278.126,185.137 277.411,186.807 
			367.733,225.678 		"/>
		<path fill-rule="evenodd" clip-rule="evenodd" fill="#FFFFFF" d="M317.554,115.986c-4.501-1.932-9.718,0.127-11.65,4.615
			c-1.932,4.467,0.159,9.672,4.683,11.615c4.5,1.934,9.729-0.113,11.65-4.592C324.157,123.148,322.066,117.941,317.554,115.986"/>
		<path fill-rule="evenodd" clip-rule="evenodd" fill="#F7E35E" d="M317.327,116.533c-4.217-1.818-9.081,0.113-10.877,4.295
			c-1.807,4.184,0.148,9.049,4.364,10.844c4.206,1.818,9.07-0.092,10.889-4.273C323.498,123.217,321.543,118.352,317.327,116.533"/>
		<path fill-rule="evenodd" clip-rule="evenodd" fill="#6699FF" d="M312.269,116.045c-2.523,0.545-4.728,2.25-5.819,4.783
			c-0.648,1.502-0.818,3.07-0.568,4.57l8.161-1.229L312.269,116.045z"/>
		<path fill-rule="evenodd" clip-rule="evenodd" fill="#E07040" d="M317.327,116.533c-1.659-0.717-3.421-0.842-5.058-0.488
			l1.773,8.125l3.569-7.5C317.52,116.623,317.429,116.578,317.327,116.533"/>
		<path fill-rule="evenodd" clip-rule="evenodd" fill="#FFFFFF" d="M306.177,136.9c4.683,0.67,7.934,5,7.251,9.66
			s-5.023,7.865-9.706,7.184c-4.694-0.682-7.945-5.002-7.274-9.66C297.13,139.436,301.483,136.219,306.177,136.9"/>
		<path fill-rule="evenodd" clip-rule="evenodd" fill="#FF876B" d="M306.086,137.445c4.387,0.637,7.411,4.684,6.785,9.025
			c-0.647,4.352-4.694,7.354-9.081,6.717c-4.364-0.637-7.41-4.672-6.774-9.025C297.653,139.811,301.722,136.809,306.086,137.445"/>
		<path fill-rule="evenodd" clip-rule="evenodd" fill="#00C7D9" d="M310.496,139.605c1.795,1.715,2.75,4.229,2.375,6.865
			c-0.227,1.557-0.897,2.943-1.864,4.045l-6.081-5.125L310.496,139.605z"/>
		<path fill-rule="evenodd" clip-rule="evenodd" fill="#F7E35E" d="M306.086,137.445c1.728,0.262,3.25,1.047,4.41,2.16l-5.569,5.785
			l0.853-7.979C305.881,137.424,305.995,137.434,306.086,137.445"/>
		<polygon fill-rule="evenodd" clip-rule="evenodd" fill="#CCCCCC" points="383.577,107.861 352.071,94.313 351.344,95.984 
			382.85,109.531 		"/>
		<polygon fill-rule="evenodd" clip-rule="evenodd" fill="#CCCCCC" points="385.179,111.691 348.185,95.779 347.457,97.449 
			384.463,113.373 		"/>
		<polygon fill-rule="evenodd" clip-rule="evenodd" fill="#666666" points="288.799,161.143 289.311,161.371 282.195,177.885 
			281.684,177.68 		"/>
		<polygon fill-rule="evenodd" clip-rule="evenodd" fill="#666666" points="281.684,177.68 281.9,177.168 307.132,188.023 
			306.916,188.545 		"/>
		<polygon fill-rule="evenodd" clip-rule="evenodd" fill="#F7E35E" points="288.424,166.496 290.049,167.201 285.31,178.225 
			283.673,177.521 		"/>
		<polygon fill-rule="evenodd" clip-rule="evenodd" fill="#E07040" points="293.175,164.768 294.812,165.473 288.697,179.68 
			287.06,178.986 		"/>
		<polygon fill-rule="evenodd" clip-rule="evenodd" fill="#6699FF" points="294.709,170.133 296.334,170.826 291.924,181.078 
			290.288,180.385 		"/>
		<polygon fill-rule="evenodd" clip-rule="evenodd" fill="#F7E35E" points="299.346,169.156 300.972,169.861 295.482,182.613 
			293.856,181.908 		"/>
		<polygon fill-rule="evenodd" clip-rule="evenodd" fill="#E37838" points="301.858,172.27 303.483,172.975 298.732,184 
			297.107,183.307 		"/>
		<polygon fill-rule="evenodd" clip-rule="evenodd" fill="#6699FF" points="303.245,177.771 304.881,178.475 301.903,185.363 
			300.278,184.682 		"/>
		<polygon fill-rule="evenodd" clip-rule="evenodd" fill="#FAFAFA" points="397.067,68.32 515.69,109.838 463.716,258.33 
			345.104,216.813 		"/>
		<polygon fill-rule="evenodd" clip-rule="evenodd" fill="#CCCCCC" points="441.417,95.553 469.308,105.326 468.046,108.941 
			440.144,99.178 		"/>
		<polygon fill-rule="evenodd" clip-rule="evenodd" fill="#CCCCCC" points="429.062,97.756 477.593,114.76 476.321,118.375 
			427.79,101.383 		"/>
		<polygon fill-rule="evenodd" clip-rule="evenodd" fill="#CCCCCC" points="402.489,99.848 422.265,106.77 414.696,128.354 
			394.942,121.443 		"/>
		<polygon fill-rule="evenodd" clip-rule="evenodd" fill="#CCCCCC" points="393.852,124.535 434.563,138.787 433.563,141.639 
			392.862,127.398 		"/>
		<polygon fill-rule="evenodd" clip-rule="evenodd" fill="#CCCCCC" points="392.112,129.523 432.823,143.775 431.823,146.629 
			391.101,132.377 		"/>
		<polygon fill-rule="evenodd" clip-rule="evenodd" fill="#CCCCCC" points="390.374,134.514 431.085,148.766 430.085,151.631 
			389.362,137.377 		"/>
		<polygon fill-rule="evenodd" clip-rule="evenodd" fill="#CCCCCC" points="388.623,139.514 429.335,153.756 428.335,156.619 
			387.623,142.367 		"/>
		<polygon fill-rule="evenodd" clip-rule="evenodd" fill="#CCCCCC" points="386.873,144.492 427.585,158.756 426.585,161.609 
			385.873,147.355 		"/>
		<polygon fill-rule="evenodd" clip-rule="evenodd" fill="#CCCCCC" points="385.123,149.492 425.835,163.746 424.835,166.609 
			384.123,152.357 		"/>
		<polygon fill-rule="evenodd" clip-rule="evenodd" fill="#CCCCCC" points="383.372,154.494 424.083,168.734 423.083,171.588 
			382.372,157.336 		"/>
		
			<rect x="379.911" y="166.514" transform="matrix(-0.9438 -0.3304 0.3304 -0.9438 724.8867 459.2775)" fill-rule="evenodd" clip-rule="evenodd" fill="#CCCCCC" width="43.133" height="3.033"/>
		<polygon fill-rule="evenodd" clip-rule="evenodd" fill="#CCCCCC" points="379.872,164.473 420.595,178.725 419.595,181.59 
			378.872,167.338 		"/>
		<polygon fill-rule="evenodd" clip-rule="evenodd" fill="#CCCCCC" points="378.133,169.463 418.845,183.715 417.845,186.568 
			377.121,172.314 		"/>
		
			<rect x="374.671" y="181.493" transform="matrix(-0.9439 -0.3304 0.3304 -0.9439 709.7793 486.65)" fill-rule="evenodd" clip-rule="evenodd" fill="#CCCCCC" width="43.146" height="3.033"/>
		<polygon fill-rule="evenodd" clip-rule="evenodd" fill="#CCCCCC" points="374.644,179.453 415.354,193.705 414.354,196.547 
			373.644,182.316 		"/>
		<polygon fill-rule="evenodd" clip-rule="evenodd" fill="#CCCCCC" points="372.893,184.443 413.604,198.684 412.604,201.547 
			371.893,187.295 		"/>
		<polygon fill-rule="evenodd" clip-rule="evenodd" fill="#CCCCCC" points="371.143,189.432 411.854,203.684 410.854,206.537 
			370.143,192.297 		"/>
		<polygon fill-rule="evenodd" clip-rule="evenodd" fill="#CCCCCC" points="369.393,194.434 410.104,208.674 409.104,211.539 
			368.393,197.285 		"/>
		<polygon fill-rule="evenodd" clip-rule="evenodd" fill="#CCCCCC" points="367.642,199.41 408.365,213.664 407.354,216.527 
			366.642,202.275 		"/>
		
			<rect x="440.719" y="148.573" transform="matrix(-0.9439 -0.3302 0.3302 -0.9439 849.0755 444.4129)" fill-rule="evenodd" clip-rule="evenodd" fill="#CCCCCC" width="43.13" height="3.033"/>
		
			<rect x="438.967" y="153.557" transform="matrix(-0.9438 -0.3304 0.3304 -0.9438 843.9639 453.6062)" fill-rule="evenodd" clip-rule="evenodd" fill="#CCCCCC" width="43.133" height="3.035"/>
		<polygon fill-rule="evenodd" clip-rule="evenodd" fill="#CCCCCC" points="438.927,151.516 479.661,165.77 478.661,168.621 
			437.927,154.381 		"/>
		<polygon fill-rule="evenodd" clip-rule="evenodd" fill="#CCCCCC" points="437.188,156.506 477.89,170.758 476.911,173.623 
			436.177,159.359 		"/>
		<polygon fill-rule="evenodd" clip-rule="evenodd" fill="#CCCCCC" points="435.438,161.506 476.161,175.748 475.161,178.611 
			434.438,164.359 		"/>
		<polygon fill-rule="evenodd" clip-rule="evenodd" fill="#CCCCCC" points="433.688,166.496 474.411,180.748 473.411,183.613 
			432.698,169.359 		"/>
		
			<rect x="430.239" y="178.522" transform="matrix(-0.9439 -0.3302 0.3302 -0.9439 818.8331 499.1498)" fill-rule="evenodd" clip-rule="evenodd" fill="#CCCCCC" width="43.131" height="3.035"/>
		<polygon fill-rule="evenodd" clip-rule="evenodd" fill="#CCCCCC" points="430.198,176.475 470.911,190.729 469.911,193.592 
			429.198,179.34 		"/>
		
			<rect x="426.737" y="188.518" transform="matrix(-0.9438 -0.3304 0.3304 -0.9438 808.6386 517.5215)" fill-rule="evenodd" clip-rule="evenodd" fill="#CCCCCC" width="43.133" height="3.033"/>
		<polygon fill-rule="evenodd" clip-rule="evenodd" fill="#CCCCCC" points="426.698,186.465 467.421,200.707 466.409,203.57 
			425.698,189.318 		"/>
		
			<rect x="423.238" y="198.496" transform="matrix(-0.9439 -0.3302 0.3302 -0.9439 798.6208 535.7039)" fill-rule="evenodd" clip-rule="evenodd" fill="#CCCCCC" width="43.156" height="3.035"/>
		<polygon fill-rule="evenodd" clip-rule="evenodd" fill="#CCCCCC" points="423.208,196.455 463.921,210.697 462.933,213.561 
			422.208,199.309 		"/>
		<polygon fill-rule="evenodd" clip-rule="evenodd" fill="#CCCCCC" points="421.47,201.434 462.181,215.688 461.181,218.551 
			420.47,204.299 		"/>
		
			<rect x="418.008" y="213.477" transform="matrix(-0.9438 -0.3304 0.3304 -0.9438 783.425 563.1536)" fill-rule="evenodd" clip-rule="evenodd" fill="#CCCCCC" width="43.133" height="3.033"/>
		<polygon fill-rule="evenodd" clip-rule="evenodd" fill="#CCCCCC" points="417.97,211.424 458.681,225.678 457.681,228.541 
			416.97,214.289 		"/>
		<polygon fill-rule="evenodd" clip-rule="evenodd" fill="#CCCCCC" points="416.219,216.414 456.931,230.666 455.931,233.531 
			415.219,219.277 		"/>
		<polygon fill-rule="evenodd" clip-rule="evenodd" fill="#CCCCCC" points="451.282,116.238 492.005,130.479 491.005,133.342 
			450.282,119.09 		"/>
		
			<rect x="447.832" y="128.257" transform="matrix(-0.9438 -0.3305 0.3305 -0.9438 869.5444 407.3719)" fill-rule="evenodd" clip-rule="evenodd" fill="#CCCCCC" width="43.134" height="3.033"/>
		<polygon fill-rule="evenodd" clip-rule="evenodd" fill="#CCCCCC" points="447.792,126.217 488.505,140.469 487.505,143.332 
			446.792,129.068 		"/>
		<polygon fill-rule="evenodd" clip-rule="evenodd" fill="#CCCCCC" points="446.042,131.217 486.755,145.459 485.753,148.322 
			445.042,134.07 		"/>
		<polygon fill-rule="evenodd" clip-rule="evenodd" fill="#CCCCCC" points="444.292,136.207 485.003,150.447 484.003,153.313 
			443.292,139.059 		"/>
		<polygon fill-rule="evenodd" clip-rule="evenodd" fill="#CCCCCC" points="424.481,106.85 443.429,113.486 442.429,116.352 
			423.481,109.713 		"/>
		
			<rect x="421.669" y="115.078" transform="matrix(-0.9439 -0.3301 0.3301 -0.9439 800.7125 369.1685)" fill-rule="evenodd" clip-rule="evenodd" fill="#CCCCCC" width="20.073" height="3.024"/>
		<polygon fill-rule="evenodd" clip-rule="evenodd" fill="#CCCCCC" points="420.993,116.84 439.927,123.467 438.927,126.33 
			419.992,119.693 		"/>
		<polygon fill-rule="evenodd" clip-rule="evenodd" fill="#CCCCCC" points="419.242,121.83 438.188,128.455 437.177,131.32 
			418.242,124.693 		"/>
		<polygon fill-rule="evenodd" clip-rule="evenodd" fill="#CCCCCC" points="417.491,126.818 436.45,133.457 435.438,136.309 
			416.491,129.672 		"/>
		<polygon fill-rule="evenodd" clip-rule="evenodd" fill="#FFFFFF" points="485.821,65.752 604.343,89.744 571.019,254.488 
			452.487,230.508 		"/>
		<polygon fill-rule="evenodd" clip-rule="evenodd" fill="#CCCCCC" points="469.171,211.936 494.073,216.982 493.505,219.777 
			468.603,214.744 		"/>
		<polygon fill-rule="evenodd" clip-rule="evenodd" fill="#CCCCCC" points="467.183,221.801 483.935,225.211 483.366,228.008 
			466.614,224.609 		"/>
		<polygon fill-rule="evenodd" clip-rule="evenodd" fill="#CCCCCC" points="531.444,87.039 559.312,92.688 558.493,96.699 
			530.626,91.051 		"/>
		<polygon fill-rule="evenodd" clip-rule="evenodd" fill="#CCCCCC" points="519.827,91.404 568.337,101.223 567.519,105.246 
			519.009,95.438 		"/>
		<polygon fill-rule="evenodd" clip-rule="evenodd" fill="#C9E8F5" points="491.755,100.303 585.612,119.295 584.089,126.818 
			490.255,107.826 		"/>
		<polygon fill-rule="evenodd" clip-rule="evenodd" fill="#999999" points="491.597,100.27 492.573,100.461 472.194,201.15 
			471.229,200.957 		"/>
		<polygon fill-rule="evenodd" clip-rule="evenodd" fill="#999999" points="514.851,104.975 515.827,105.168 495.46,205.867 
			494.483,205.662 		"/>
		<polygon fill-rule="evenodd" clip-rule="evenodd" fill="#999999" points="538.126,109.68 539.081,109.885 518.714,210.572 
			517.737,210.367 		"/>
		<polygon fill-rule="evenodd" clip-rule="evenodd" fill="#999999" points="561.38,114.396 562.358,114.578 541.991,215.277 
			541.013,215.072 		"/>
		<polygon fill-rule="evenodd" clip-rule="evenodd" fill="#999999" points="584.657,119.102 585.612,119.295 565.245,219.982 
			564.269,219.777 		"/>
		<polygon fill-rule="evenodd" clip-rule="evenodd" fill="#999999" points="491.437,101.098 491.597,100.27 584.657,119.102 
			584.476,119.932 		"/>
		<polygon fill-rule="evenodd" clip-rule="evenodd" fill="#999999" points="490.095,107.758 490.255,106.93 583.315,125.762 
			583.134,126.592 		"/>
		<polygon fill-rule="evenodd" clip-rule="evenodd" fill="#999999" points="488.755,114.418 488.913,113.578 581.952,132.41 
			581.771,133.252 		"/>
		<polygon fill-rule="evenodd" clip-rule="evenodd" fill="#999999" points="487.39,121.068 487.55,120.238 580.612,139.07 
			580.452,139.9 		"/>
		<polygon fill-rule="evenodd" clip-rule="evenodd" fill="#999999" points="486.05,127.729 486.208,126.898 579.247,145.721 
			579.089,146.561 		"/>
		<polygon fill-rule="evenodd" clip-rule="evenodd" fill="#999999" points="484.685,134.377 484.868,133.559 577.907,152.381 
			577.747,153.221 		"/>
		<polygon fill-rule="evenodd" clip-rule="evenodd" fill="#999999" points="483.345,141.037 483.526,140.219 576.565,159.041 
			576.384,159.869 		"/>
		<polygon fill-rule="evenodd" clip-rule="evenodd" fill="#999999" points="482.003,147.697 482.163,146.867 575.202,165.701 
			575.065,166.529 		"/>
		<polygon fill-rule="evenodd" clip-rule="evenodd" fill="#999999" points="480.661,154.357 480.821,153.516 573.86,172.361 
			573.7,173.18 		"/>
		<polygon fill-rule="evenodd" clip-rule="evenodd" fill="#999999" points="479.298,161.018 479.479,160.178 572.519,178.998 
			572.36,179.84 		"/>
		<polygon fill-rule="evenodd" clip-rule="evenodd" fill="#999999" points="477.958,167.666 478.116,166.838 571.179,185.67 
			570.995,186.5 		"/>
		<polygon fill-rule="evenodd" clip-rule="evenodd" fill="#999999" points="476.616,174.326 476.774,173.498 569.813,192.318 
			569.655,193.16 		"/>
		<polygon fill-rule="evenodd" clip-rule="evenodd" fill="#999999" points="475.274,180.977 475.435,180.158 568.474,198.979 
			568.313,199.82 		"/>
		<polygon fill-rule="evenodd" clip-rule="evenodd" fill="#999999" points="473.923,187.637 474.093,186.807 567.132,205.639 
			566.972,206.48 		"/>
		<polygon fill-rule="evenodd" clip-rule="evenodd" fill="#999999" points="472.569,194.297 472.751,193.467 565.79,212.299 
			565.608,213.129 		"/>
		<polygon fill-rule="evenodd" clip-rule="evenodd" fill="#999999" points="471.229,200.957 471.388,200.115 564.45,218.949 
			564.269,219.777 		"/>
		<polygon fill-rule="evenodd" clip-rule="evenodd" fill="#FAFAFA" points="602.843,71.434 728.388,128.125 657.421,285.289 
			531.876,228.586 		"/>
		<polygon fill-rule="evenodd" clip-rule="evenodd" fill="#6699FF" points="630.052,143.822 656.079,155.574 652.124,164.348 
			626.097,152.596 		"/>
		<polygon fill-rule="evenodd" clip-rule="evenodd" fill="#6699FF" points="639.53,160.688 638.167,163.678 639.372,164.201 
			635.644,166.109 634.62,162.064 635.804,162.609 637.144,159.609 		"/>
		<polygon fill-rule="evenodd" clip-rule="evenodd" fill="#6699FF" points="622.481,160.563 648.532,172.314 644.554,181.09 
			618.526,169.338 		"/>
		<polygon fill-rule="evenodd" clip-rule="evenodd" fill="#6699FF" points="632.007,177.373 630.644,180.352 631.847,180.885 
			628.12,182.795 627.097,178.748 628.278,179.283 629.62,176.293 		"/>
		<polygon fill-rule="evenodd" clip-rule="evenodd" fill="#6699FF" points="627.073,183.691 641.599,196.955 622.05,194.818 
			608.593,182.045 		"/>
		<polygon fill-rule="evenodd" clip-rule="evenodd" fill="#6699FF" points="606.003,184.613 604.661,187.59 605.843,188.137 
			602.114,190.045 601.093,185.988 602.274,186.521 603.638,183.545 		"/>
		<polygon fill-rule="evenodd" clip-rule="evenodd" fill="#6699FF" points="643.759,201.662 642.417,204.639 643.601,205.186 
			639.872,207.082 638.849,203.025 640.03,203.57 641.372,200.594 		"/>
		<polygon fill-rule="evenodd" clip-rule="evenodd" fill="#6699FF" points="591.204,185.818 617.255,197.582 613.3,206.344 
			587.249,194.592 		"/>
		<polygon fill-rule="evenodd" clip-rule="evenodd" fill="#6699FF" points="624.21,200.729 650.261,212.482 646.306,221.256 
			620.255,209.504 		"/>
		<polygon fill-rule="evenodd" clip-rule="evenodd" fill="#6699FF" points="586.454,204.184 612.503,215.938 602.661,222.063 
			576.634,210.299 		"/>
		<polygon fill-rule="evenodd" clip-rule="evenodd" fill="#6699FF" points="619.46,219.074 645.487,230.838 635.667,236.963 
			609.616,225.211 		"/>
		<polygon fill-rule="evenodd" clip-rule="evenodd" fill="#6699FF" points="598.409,201.434 597.046,204.424 598.251,204.957 
			594.522,206.867 593.499,202.82 594.683,203.344 596.022,200.365 		"/>
		<polygon fill-rule="evenodd" clip-rule="evenodd" fill="#6699FF" points="636.167,218.494 634.802,221.471 635.985,222.006 
			632.28,223.916 631.257,219.857 632.438,220.393 633.78,217.414 		"/>
		<path fill-rule="evenodd" clip-rule="evenodd" fill="#6699FF" d="M639.167,131.172l20.391,9.205
			c1.545,0.705,2.25,2.547,1.545,4.092l0,0c-0.705,1.547-2.545,2.252-4.092,1.547l-20.389-9.207c-1.57-0.705-2.252-2.545-1.57-4.092
			C635.78,131.16,637.599,130.467,639.167,131.172"/>
		<polygon fill-rule="evenodd" clip-rule="evenodd" fill="#6699FF" points="647.577,142.855 646.237,145.846 647.419,146.379 
			643.69,148.289 642.667,144.242 643.872,144.766 645.214,141.787 		"/>
		<polygon fill="#6699FF" points="591.181,231.213 587.636,231.928 588.067,230.963 582.794,228.574 587.681,217.756 
			590.362,218.959 586.339,227.859 588.954,229.041 589.386,228.074 		"/>
		<polygon fill-rule="evenodd" clip-rule="evenodd" fill="#CCCCCC" points="627.71,105.621 686.312,132.059 684.835,135.285 
			626.255,108.826 		"/>
		
			<rect x="638.372" y="112.926" transform="matrix(-0.9114 -0.4116 0.4116 -0.9114 1212.1515 490.398)" fill-rule="evenodd" clip-rule="evenodd" fill="#CCCCCC" width="41.005" height="3.531"/>
		<path fill-rule="evenodd" clip-rule="evenodd" fill="#FFFFFF" d="M768.894,112.123h22.938v22.959h-22.938V112.123z
			 M745.937,137.832h22.957v22.959h-22.957V137.832z M774.304,162.393h22.959v22.947h-22.959V162.393z M826.269,137.832H803.31
			v22.959h22.959V137.832z M740.208,189.92h22.959v22.947h-22.959V189.92z M820.54,191.092h-22.959v22.947h22.959V191.092z
			 M797.581,215.641h-22.959v22.947h22.959V215.641z M697.79,87.572h48.146v22.947h22.957V87.572h17.959l39.416,39.416v9.252h9.252
			l2.137,2.137v27.869h-11.389v22.959h11.389v27.322h-11.389v22.947h11.389v23.174h-69.104v-22.457h-22.936v22.457H697.79V87.572z"
			/>
		<polygon fill-rule="evenodd" clip-rule="evenodd" fill="#CCCCCC" points="768.894,94.609 786.853,94.619 786.853,99.541 
			768.894,99.541 		"/>
		<path fill-rule="evenodd" clip-rule="evenodd" fill="#CCCCCC" d="M768.894,102.531h17.959v4.932h-17.959V102.531z
			 M738.298,102.531h7.639v4.932h-7.639V102.531z"/>
		<polygon fill-rule="evenodd" clip-rule="evenodd" fill="#CCCCCC" points="707.021,149.879 745.937,149.879 745.937,153.777 
			707.021,153.768 		"/>
		<rect x="707.021" y="156.676" fill-rule="evenodd" clip-rule="evenodd" fill="#CCCCCC" width="38.916" height="3.887"/>
		<rect x="707.021" y="163.461" fill-rule="evenodd" clip-rule="evenodd" fill="#CCCCCC" width="55.373" height="3.898"/>
		<rect x="707.021" y="170.246" fill-rule="evenodd" clip-rule="evenodd" fill="#CCCCCC" width="55.373" height="3.889"/>
		<rect x="707.021" y="177.043" fill-rule="evenodd" clip-rule="evenodd" fill="#CCCCCC" width="55.373" height="3.887"/>
		<rect x="707.021" y="183.828" fill-rule="evenodd" clip-rule="evenodd" fill="#CCCCCC" width="55.373" height="3.887"/>
		<polygon fill-rule="evenodd" clip-rule="evenodd" fill="#CCCCCC" points="773.077,183.828 774.304,183.828 774.304,185.34 
			797.263,185.34 797.263,183.828 826.269,183.828 826.269,187.715 773.077,187.715 		"/>
		<polygon fill-rule="evenodd" clip-rule="evenodd" fill="#CCCCCC" points="773.077,190.613 828.45,190.613 828.45,194.502 
			820.54,194.502 820.54,191.092 797.581,191.092 797.581,194.502 773.077,194.502 		"/>
		<path fill-rule="evenodd" clip-rule="evenodd" fill="#CCCCCC" d="M820.54,197.41h7.91v3.887h-7.91V197.41z M773.077,197.41h24.504
			v3.887h-24.504V197.41z"/>
		<path fill-rule="evenodd" clip-rule="evenodd" fill="#CCCCCC" d="M820.54,204.195h7.91v3.898h-7.91V204.195z M773.077,204.195
			h24.504v3.898h-24.504V204.195z"/>
		<polygon fill-rule="evenodd" clip-rule="evenodd" fill="#CCCCCC" points="773.077,210.98 797.581,210.98 797.581,214.039 
			820.54,214.039 820.54,210.98 828.45,210.98 828.45,214.879 773.077,214.879 		"/>
		<path fill-rule="evenodd" clip-rule="evenodd" fill="#CCCCCC" d="M797.581,217.777h28.688v3.887h-28.688V217.777z
			 M773.077,217.777h1.545v3.887h-1.545V217.777z"/>
		<path fill-rule="evenodd" clip-rule="evenodd" fill="#CCCCCC" d="M797.581,224.563l28.688,0.012v3.887h-28.688V224.563z
			 M773.077,224.563h1.545v3.898h-1.545V224.563z"/>
		<path fill-rule="evenodd" clip-rule="evenodd" fill="#CCCCCC" d="M826.269,138.377h2.182v1.365h-2.182V138.377z M773.077,135.844
			h13.775v2.533h16.457v1.365h-30.232V135.844z"/>
		<path fill-rule="evenodd" clip-rule="evenodd" fill="#CCCCCC" d="M826.269,142.629h2.182v3.887h-2.182V142.629z M773.077,142.629
			h30.232v3.887h-30.232V142.629z"/>
		<polygon fill-rule="evenodd" clip-rule="evenodd" fill="#CCCCCC" points="736.616,115.486 762.394,115.477 762.394,119.375 
			736.616,119.375 		"/>
		<rect x="736.616" y="122.262" fill-rule="evenodd" clip-rule="evenodd" fill="#CCCCCC" width="25.777" height="3.898"/>
		<rect x="736.616" y="129.059" fill-rule="evenodd" clip-rule="evenodd" fill="#CCCCCC" width="25.777" height="3.887"/>
		<polygon fill-rule="evenodd" clip-rule="evenodd" fill="#CCCCCC" points="736.616,135.844 762.394,135.844 762.394,137.832 
			745.937,137.832 745.937,139.742 736.616,139.742 		"/>
		<rect x="736.616" y="142.629" fill-rule="evenodd" clip-rule="evenodd" fill="#CCCCCC" width="9.32" height="3.887"/>
		<polygon fill-rule="evenodd" clip-rule="evenodd" fill="#999999" points="786.853,87.572 826.269,126.988 826.269,136.24 
			835.521,136.24 837.657,138.377 826.269,138.377 826.269,137.832 803.31,137.832 803.31,138.377 786.853,138.377 786.853,135.082 
			786.853,112.123 		"/>
		<rect x="707.021" y="115.477" fill-rule="evenodd" clip-rule="evenodd" fill="#CCCCCC" width="27.686" height="30.777"/>
		<polygon fill-rule="evenodd" clip-rule="evenodd" fill="#CCCCCC" points="707.021,192.705 740.208,192.705 740.208,212.867 
			762.394,212.867 762.394,223.473 707.021,223.473 		"/>
		<polygon fill-rule="evenodd" clip-rule="evenodd" fill="#CCCCCC" points="773.077,149.152 803.31,149.152 803.31,160.791 
			826.269,160.791 826.269,149.152 828.45,149.152 828.45,166.246 826.269,166.246 826.269,179.93 797.263,179.93 797.263,162.393 
			774.304,162.393 774.304,179.93 773.077,179.93 		"/>
		<rect x="855.204" y="113.283" fill-rule="evenodd" clip-rule="evenodd" fill="#FFFFFF" width="22.938" height="22.957"/>
		<rect x="843.817" y="166.246" fill-rule="evenodd" clip-rule="evenodd" fill="#FFFFFF" width="22.936" height="22.959"/>
		<rect x="843.817" y="216.527" fill-rule="evenodd" clip-rule="evenodd" fill="#FFFFFF" width="22.936" height="22.947"/>
	</g>
</g>
</svg>
