<?xml version="1.0" encoding="utf-8"?>
<!-- Generator: Adobe Illustrator 16.0.3, SVG Export Plug-In . SVG Version: 6.00 Build 0)  -->
<!DOCTYPE svg PUBLIC "-//W3C//DTD SVG 1.1//EN" "http://www.w3.org/Graphics/SVG/1.1/DTD/svg11.dtd">
<svg version="1.1" id="Layer_1" xmlns="http://www.w3.org/2000/svg" xmlns:xlink="http://www.w3.org/1999/xlink" x="0px" y="0px"
	 width="135.302px" height="135.302px" viewBox="0 0 135.302 135.302" enable-background="new 0 0 135.302 135.302"
	 xml:space="preserve">
<g>
	<g>
		<g>
			<path fill="#FFFFFF" d="M67.65,0c37.364,0,67.651,30.29,67.651,67.65c0,37.364-30.287,67.651-67.651,67.651S0,105.015,0,67.65
				C0,30.29,30.286,0,67.65,0z"/>
		</g>
	</g>
	<path fill="#65BBF2" d="M82.328,39.709c-8.592,0.131-15.361,7.551-15.361,16.142v2.083C51.605,55.2,44.055,51.034,35.724,42.313
		c-4.946,9.634,0.521,17.704,6.509,22.131c-4.035,0-7.42-0.521-10.023-2.864c-0.261-0.13-0.521,0-0.391,0.261
		c2.213,8.07,9.764,13.929,15.621,15.621c-5.338,0-8.853,0.781-12.627-1.562c-0.261-0.131-0.521,0-0.391,0.26
		c2.863,7.941,8.592,10.414,16.924,10.414c-4.166,3.125-9.764,6.249-20.309,6.51c-0.391,0-0.65,0.521-0.26,0.781
		c3.904,3.254,13.538,5.728,27.077,5.728c22.261,0,40.355-19.787,40.355-44.262v-1.301c3.515-1.302,5.467-4.427,6.509-7.551
		c0-0.131-0.13-0.261-0.26-0.261l-7.421,2.604c-0.13,0-0.261-0.26-0.13-0.391c3.124-2.473,5.468-5.597,6.509-8.591
		c0,0-0.13-0.131-0.26-0.131c-3.516,1.433-6.9,2.863-9.503,3.645c-0.391,0.131-0.912,0.131-1.302-0.129
		C90.659,42.313,85.583,39.709,82.328,39.709"/>
</g>
</svg>
