<?xml version="1.0" encoding="utf-8"?>
<!-- Generator: Adobe Illustrator 16.0.3, SVG Export Plug-In . SVG Version: 6.00 Build 0)  -->
<!DOCTYPE svg PUBLIC "-//W3C//DTD SVG 1.1//EN" "http://www.w3.org/Graphics/SVG/1.1/DTD/svg11.dtd">
<svg version="1.1" id="Layer_1" xmlns="http://www.w3.org/2000/svg" xmlns:xlink="http://www.w3.org/1999/xlink" x="0px" y="0px"
	 width="336.479px" height="278.4px" viewBox="0 0 336.479 278.4" enable-background="new 0 0 336.479 278.4" xml:space="preserve">
<g>
	
		<image overflow="visible" opacity="0.15" width="1402" height="1160" xlink:href="9FCC5FF6.png"  transform="matrix(0.24 0 0 0.24 0 0)">
	</image>
	<g>
		<rect x="45.734" y="8" fill="#FFFFFF" width="62.793" height="22.791"/>
		<path fill="#FFFFFF" d="M147.568,146.999c0,12.445-10.078,22.522-22.503,22.522c-12.448,0-22.518-10.078-22.518-22.522
			c0-12.413,10.065-22.503,22.518-22.503C137.491,124.498,147.568,134.585,147.568,146.999z"/>
		<path fill="#FFFFFF" d="M299.445,37.797h-262.6C24.814,37.797,15,47.55,15,59.635v174.724c0,12.104,9.814,21.863,21.846,21.863
			h262.6c12.069,0,21.827-9.76,21.827-21.863V59.635C321.284,47.55,311.52,37.797,299.445,37.797z M261.403,55.522h26.596
			c7.918,0,14.328,6.418,14.328,14.346c0,7.899-6.422,14.312-14.328,14.312h-26.596c-7.936,0-14.346-6.423-14.346-14.312
			C247.058,61.94,253.468,55.522,261.403,55.522z M125.94,229.86c-45.767,0-82.851-37.083-82.851-82.849
			c0-45.748,37.084-82.852,82.851-82.852c45.764,0,82.855,37.104,82.855,82.852C208.796,192.776,171.704,229.86,125.94,229.86z
			 M304.859,214.693h-30.858v31.483h-26.88v-31.483h-31.276v-26.893h31.276V157.18h26.88v30.621h30.858V214.693z"/>
	</g>
</g>
</svg>
