<?xml version="1.0" encoding="utf-8"?>
<!-- Generator: Adobe Illustrator 16.0.3, SVG Export Plug-In . SVG Version: 6.00 Build 0)  -->
<!DOCTYPE svg PUBLIC "-//W3C//DTD SVG 1.1//EN" "http://www.w3.org/Graphics/SVG/1.1/DTD/svg11.dtd">
<svg version="1.1" id="Layer_1" xmlns="http://www.w3.org/2000/svg" xmlns:xlink="http://www.w3.org/1999/xlink" x="0px" y="0px"
	 width="250px" height="250px" viewBox="0 0 250 250" enable-background="new 0 0 250 250" xml:space="preserve">
<rect fill="#FFFFFF" width="250" height="250"/>
<g>
	<g>
		<path fill="#00A4E5" d="M15.991,237.122c6.88-3.888,13.71-7.899,20.761-11.422c6.84-3.445,13.905-6.394,20.902-9.51
			c6.578-2.904,13.23-5.661,19.766-8.656c1.116-0.512,2.249-1.772,2.715-2.973c1.457-3.835,2.701-7.826,3.856-11.799
			c0.872-3.002,1.437-5.976,5.115-6.772c0.919-0.199,2.059-1.871,2.196-3.015c0.75-5.78,1.314-11.588,1.692-17.429
			c0.093-1.233-0.517-2.832-1.321-3.779c-4.84-5.698-7.502-12.271-8.622-19.837c-0.563-3.792-2.568-7.297-3.616-11.027
			c-1.374-5.016-2.521-10.072-3.615-15.172c-0.393-1.827-0.166-3.811-0.451-5.682c-0.422-2.729-0.344-4.849,2.777-5.897
			c0.861-0.29,1.584-2.461,1.61-3.792c0.157-8.114,0.055-16.237,0.102-24.356c0.038-4.974-0.013-9.978,0.331-14.952
			c0.664-9.522,5.969-16.233,12.621-22.004c9.712-8.437,21.347-12.366,33.298-15.355c6.27-1.55,12.667-2.502,19.057-3.571
			c1.696-0.29,3.465-0.049,5.203-0.049c0.278,0.471,0.572,0.927,0.868,1.39c-1.347,1.014-2.827,1.868-3.982,3.076
			c-2.595,2.734-2.344,4.661,0.444,7.127c5.757,5.14,11.531,10.278,17.134,15.603c4.928,4.664,6.849,10.782,6.856,17.648
			c0.011,11.82,0.019,23.64,0.011,35.472c-0.011,2.424-0.173,4.805,2.681,5.882c0.604,0.225,1.244,1.554,1.19,2.314
			c-0.487,6.052-1.097,12.097-1.715,18.133c-0.021,0.232-0.077,0.509-0.196,0.676c-5.166,7.932-5.834,17.669-9.512,26.19
			c-0.154,0.325-0.216,0.704-0.452,0.972c-6.838,8.493-4.706,18.695-4.836,28.444c-0.02,0.984,0.649,2.542,1.401,2.863
			c2.809,1.301,3.488,3.832,4.262,6.504c1.221,4.21,2.425,8.432,4.134,12.422c0.621,1.485,2.51,2.729,4.065,3.352
			c21.055,8.51,41.896,17.526,61.991,28.367c4.016,2.188,7.486,5.434,10.401,8.606V4.885c-80.104,0-160.177,0-240.228,0v240.229
			C4.887,245.114,11.928,239.412,15.991,237.122z"/>
	</g>
	<polygon fill="none" stroke="#FFFFFF" stroke-width="2" stroke-miterlimit="10" points="27.88,245.114 4.887,245.114 4.887,4.885 
		245.114,4.885 245.114,245.114 	"/>
</g>
</svg>
